<svg xmlns="http://www.w3.org/2000/svg" viewBox="0 0 24 24" fill="currentColor">
  <path d="M19.14 12.94c.04-.31.06-.63.06-.94 0-.31-.02-.63-.06-.94l2.03-2.03c.18-.18.22-.43.12-.65l-2.03-3.52c-.12-.22-.38-.31-.6-.22l-2.38 1.02c-.48-.36-.99-.66-1.54-.91l-.36-2.54c-.04-.24-.24-.41-.48-.41h-4.06c-.24 0-.44.17-.48.41l-.36 2.54c-.55.24-1.06.54-1.54.91l-2.38-1.02c-.22-.09-.48 0-.6.22L2.13 8.4c-.1.22-.06.47.12.65l2.03 2.03c-.04.31-.06.63-.06.94s.02.63.06.94l-2.03 2.03c-.18.18-.22.43-.12.65l2.03 3.52c.12.22.38.31.6.22l2.38-1.02c.48.36.99.66 1.54.91l.36 2.54c.04.24.24.41.48.41h4.06c.24 0 .44-.17.48-.41l.36-2.54c.55-.24 1.06-.54 1.54-.91l2.38 1.02c.22.09.48 0 .6-.22l2.03-3.52c.1-.22.06-.47-.12-.65l-2.01-2.02zM12 15.6c-1.98 0-3.6-1.62-3.6-3.6s1.62-3.6 3.6-3.6 3.6 1.62 3.6 3.6-1.62 3.6-3.6 3.6z"/>
</svg>
